{
DisplayStrings = (
A
);
date = "2013-05-07 17:01:52 +0000";
designer = "Shinji Pons";
designerURL = www.shinjipons.com;
familyName = "Modulo 24";
fontMaster = (
{
alignmentZones = (
"{128, 129}",
"{128, 129}",
"{128, 129}",
"{0, -2}",
"{0, -2}"
);
ascender = 128;
capHeight = 128;
customParameters = (
{
name = familyName;
value = "Modulo 24";
}
);
descender = 0;
guideLines = (
{
position = "{-25, 52}";
},
{
angle = 90;
position = "{84, 139}";
},
{
angle = 90;
position = "{60, 135}";
},
{
position = "{-18, 76}";
},
{
angle = 90;
position = "{32, 143}";
},
{
angle = 90;
position = "{112, 136}";
},
{
position = "{-22, 104}";
},
{
position = "{-20, 24}";
},
{
angle = 90;
position = "{136, -22}";
},
{
angle = 90;
position = "{8, -30}";
}
);
horizontalStems = (
24
);
id = "940E2F63-624A-4C3D-A909-721782B4CF41";
userData = {
GSOffsetHorizontal = 1;
GSOffsetMakeStroke = 1;
GSOffsetPosition = 0;
GSOffsetProportional = 1;
GSOffsetVertical = 10;
};
verticalStems = (
24
);
weightValue = 24;
widthValue = 128;
xHeight = 128;
}
);
glyphs = (
{
glyphname = A;
lastChange = "2013-09-13 17:17:43 +0200";
layers = (
{
guideLines = (
{
position = "{-9, 112}";
showMeasurement = 1;
},
{
position = "{-6, 35}";
showMeasurement = 1;
}
);
layerId = "940E2F63-624A-4C3D-A909-721782B4CF41";
name = Regular;
paths = (
{
closed = 1;
nodes = (
"10 126 LINE",
"134 126 LINE",
"134 2 LINE",
"10 2 LINE",
"10 74 LINE",
"82 74 LINE",
"82 54 LINE",
"30 54 LINE",
"30 22 LINE",
"114 22 LINE",
"114 106 LINE",
"10 106 LINE"
);
},
{
closed = 1;
nodes = (
"112 104 LINE",
"112 24 LINE",
"32 24 LINE",
"32 52 LINE",
"84 52 LINE",
"84 76 LINE",
"8 76 LINE",
"8 0 LINE",
"136 0 LINE",
"136 128 LINE",
"8 128 LINE",
"8 104 LINE"
);
}
);
width = 144;
}
);
unicode = 0041;
},
{
glyphname = B;
lastChange = "2013-06-29 18:42:57 +0200";
layers = (
{
layerId = "940E2F63-624A-4C3D-A909-721782B4CF41";
name = Regular;
paths = (
{
closed = 1;
nodes = (
"8 128 LINE",
"8 0 LINE",
"32 0 LINE",
"32 104 LINE",
"112 104 LINE",
"112 76 LINE",
"60 76 LINE",
"60 52 LINE",
"112 52 LINE",
"112 24 LINE",
"60 24 LINE",
"60 0 LINE",
"136 0 LINE",
"136 128 LINE"
);
}
);
width = 144;
}
);
unicode = 0042;
},
{
glyphname = C;
lastChange = "2013-06-29 18:43:12 +0200";
layers = (
{
layerId = "940E2F63-624A-4C3D-A909-721782B4CF41";
name = Regular;
paths = (
{
closed = 1;
nodes = (
"8 0 LINE",
"8 128 LINE",
"136 128 LINE",
"136 104 LINE",
"32 104 LINE",
"32 24 LINE",
"136 24 LINE",
"136 0 LINE"
);
}
);
width = 144;
}
);
unicode = 0043;
},
{
glyphname = D;
lastChange = "2013-06-29 18:43:25 +0200";
layers = (
{
layerId = "940E2F63-624A-4C3D-A909-721782B4CF41";
name = Regular;
paths = (
{
closed = 1;
nodes = (
"136 128 LINE",
"8 128 LINE",
"8 104 LINE",
"112 104 LINE",
"112 24 LINE",
"32 24 LINE",
"32 76 LINE",
"8 76 LINE",
"8 0 LINE",
"136 0 LINE"
);
}
);
width = 144;
}
);
unicode = 0044;
},
{
glyphname = E;
lastChange = "2013-06-29 18:44:01 +0200";
layers = (
{
layerId = "940E2F63-624A-4C3D-A909-721782B4CF41";
name = Regular;
paths = (
{
closed = 1;
nodes = (
"136 52 LINE",
"136 128 LINE",
"60 128 LINE",
"60 104 LINE",
"112 104 LINE",
"112 76 LINE",
"32 76 LINE",
"32 128 LINE",
"8 128 LINE",
"8 0 LINE",
"136 0 LINE",
"136 24 LINE",
"32 24 LINE",
"32 52 LINE"
);
}
);
width = 144;
}
);
unicode = 0045;
},
{
glyphname = F;
lastChange = "2013-06-29 18:44:18 +0200";
layers = (
{
layerId = "940E2F63-624A-4C3D-A909-721782B4CF41";
name = Regular;
paths = (
{
closed = 1;
nodes = (
"32 0 LINE",
"32 52 LINE",
"136 52 LINE",
"136 76 LINE",
"32 76 LINE",
"32 104 LINE",
"136 104 LINE",
"136 128 LINE",
"8 128 LINE",
"8 0 LINE"
);
}
);
width = 144;
}
);
unicode = 0046;
},
{
glyphname = H;
lastChange = "2013-06-29 18:44:38 +0200";
layers = (
{
layerId = "940E2F63-624A-4C3D-A909-721782B4CF41";
name = Regular;
paths = (
{
closed = 1;
nodes = (
"112 128 LINE",
"112 76 LINE",
"32 76 LINE",
"32 128 LINE",
"8 128 LINE",
"8 0 LINE",
"32 0 LINE",
"32 52 LINE",
"112 52 LINE",
"112 0 LINE",
"136 0 LINE",
"136 128 LINE"
);
}
);
width = 144;
}
);
unicode = 0048;
},
{
glyphname = J;
lastChange = "2013-06-29 18:44:51 +0200";
layers = (
{
layerId = "940E2F63-624A-4C3D-A909-721782B4CF41";
name = Regular;
paths = (
{
closed = 1;
nodes = (
"60 128 LINE",
"60 104 LINE",
"112 104 LINE",
"112 24 LINE",
"8 24 LINE",
"8 0 LINE",
"136 0 LINE",
"136 128 LINE"
);
}
);
width = 144;
}
);
unicode = 004A;
},
{
glyphname = K;
lastChange = "2013-06-29 18:45:14 +0200";
layers = (
{
layerId = "940E2F63-624A-4C3D-A909-721782B4CF41";
name = Regular;
paths = (
{
closed = 1;
nodes = (
"136 104 LINE",
"136 128 LINE",
"60 128 LINE",
"60 76 LINE",
"32 76 LINE",
"32 128 LINE",
"8 128 LINE",
"8 0 LINE",
"32 0 LINE",
"32 52 LINE",
"112 52 LINE",
"112 0 LINE",
"136 0 LINE",
"136 76 LINE",
"84 76 LINE",
"84 104 LINE"
);
}
);
width = 144;
}
);
unicode = 004B;
},
{
glyphname = L;
lastChange = "2013-06-29 18:45:22 +0200";
layers = (
{
layerId = "940E2F63-624A-4C3D-A909-721782B4CF41";
name = Regular;
paths = (
{
closed = 1;
nodes = (
"136 0 LINE",
"136 24 LINE",
"32 24 LINE",
"32 128 LINE",
"8 128 LINE",
"8 0 LINE"
);
}
);
width = 144;
}
);
unicode = 004C;
},
{
glyphname = M;
lastChange = "2013-06-29 18:45:39 +0200";
layers = (
{
layerId = "940E2F63-624A-4C3D-A909-721782B4CF41";
name = Regular;
paths = (
{
closed = 1;
nodes = (
"8 128 LINE",
"8 0 LINE",
"32 0 LINE",
"32 104 LINE",
"60 104 LINE",
"60 0 LINE",
"84 0 LINE",
"84 104 LINE",
"112 104 LINE",
"112 0 LINE",
"136 0 LINE",
"136 128 LINE"
);
}
);
width = 144;
}
);
unicode = 004D;
},
{
glyphname = N;
lastChange = "2013-06-29 18:45:53 +0200";
layers = (
{
layerId = "940E2F63-624A-4C3D-A909-721782B4CF41";
name = Regular;
paths = (
{
closed = 1;
nodes = (
"112 128 LINE",
"112 24 LINE",
"84 24 LINE",
"84 128 LINE",
"8 128 LINE",
"8 0 LINE",
"32 0 LINE",
"32 104 LINE",
"60 104 LINE",
"60 0 LINE",
"136 0 LINE",
"136 128 LINE"
);
}
);
width = 144;
}
);
unicode = 004E;
},
{
glyphname = O;
lastChange = "2013-06-29 18:46:04 +0200";
layers = (
{
layerId = "940E2F63-624A-4C3D-A909-721782B4CF41";
name = Regular;
paths = (
{
closed = 1;
nodes = (
"8 128 LINE",
"8 0 LINE",
"136 0 LINE",
"136 128 LINE"
);
},
{
closed = 1;
nodes = (
"112 24 LINE",
"32 24 LINE",
"32 104 LINE",
"112 104 LINE"
);
}
);
width = 144;
}
);
unicode = 004F;
},
{
glyphname = P;
lastChange = "2013-06-29 18:46:17 +0200";
layers = (
{
layerId = "940E2F63-624A-4C3D-A909-721782B4CF41";
name = Regular;
paths = (
{
closed = 1;
nodes = (
"8 0 LINE",
"8 128 LINE",
"136 128 LINE",
"136 52 LINE",
"60 52 LINE",
"60 76 LINE",
"112 76 LINE",
"112 104 LINE",
"32 104 LINE",
"32 0 LINE"
);
}
);
width = 144;
}
);
unicode = 0050;
},
{
glyphname = Q;
lastChange = "2013-06-29 18:46:31 +0200";
layers = (
{
layerId = "940E2F63-624A-4C3D-A909-721782B4CF41";
name = Regular;
paths = (
{
closed = 1;
nodes = (
"8 128 LINE",
"8 0 LINE",
"136 0 LINE",
"136 128 LINE"
);
},
{
closed = 1;
nodes = (
"112 24 LINE",
"84 24 LINE",
"84 76 LINE",
"60 76 LINE",
"60 24 LINE",
"32 24 LINE",
"32 104 LINE",
"112 104 LINE"
);
}
);
width = 144;
}
);
unicode = 0051;
},
{
glyphname = R;
lastChange = "2013-06-29 18:46:48 +0200";
layers = (
{
layerId = "940E2F63-624A-4C3D-A909-721782B4CF41";
name = Regular;
paths = (
{
closed = 1;
nodes = (
"136 52 LINE",
"136 128 LINE",
"8 128 LINE",
"8 0 LINE",
"32 0 LINE",
"32 104 LINE",
"112 104 LINE",
"112 76 LINE",
"60 76 LINE",
"60 0 LINE",
"136 0 LINE",
"136 24 LINE",
"84 24 LINE",
"84 52 LINE"
);
}
);
width = 144;
}
);
unicode = 0052;
},
{
glyphname = T;
lastChange = "2013-06-29 18:46:57 +0200";
layers = (
{
layerId = "940E2F63-624A-4C3D-A909-721782B4CF41";
name = Regular;
paths = (
{
closed = 1;
nodes = (
"8 128 LINE",
"8 104 LINE",
"60 104 LINE",
"60 0 LINE",
"84 0 LINE",
"84 104 LINE",
"136 104 LINE",
"136 128 LINE"
);
}
);
width = 144;
}
);
unicode = 0054;
},
{
glyphname = V;
lastChange = "2013-06-29 18:52:56 +0200";
layers = (
{
layerId = "940E2F63-624A-4C3D-A909-721782B4CF41";
name = Regular;
paths = (
{
closed = 1;
nodes = (
"8 0 LINE",
"84 0 LINE",
"84 52 LINE",
"136 52 LINE",
"136 128 LINE",
"112 128 LINE",
"112 76 LINE",
"60 76 LINE",
"60 24 LINE",
"32 24 LINE",
"32 128 LINE",
"8 128 LINE"
);
}
);
width = 144;
}
);
unicode = 0056;
},
{
glyphname = X;
lastChange = "2013-06-29 18:53:15 +0200";
layers = (
{
layerId = "940E2F63-624A-4C3D-A909-721782B4CF41";
name = Regular;
paths = (
{
closed = 1;
nodes = (
"136 104 LINE",
"136 128 LINE",
"8 128 LINE",
"8 52 LINE",
"32 52 LINE",
"32 104 LINE",
"60 104 LINE",
"60 24 LINE",
"8 24 LINE",
"8 0 LINE",
"136 0 LINE",
"136 76 LINE",
"112 76 LINE",
"112 24 LINE",
"84 24 LINE",
"84 104 LINE"
);
}
);
width = 144;
}
);
unicode = 0058;
},
{
glyphname = Y;
lastChange = "2013-06-29 18:53:29 +0200";
layers = (
{
layerId = "940E2F63-624A-4C3D-A909-721782B4CF41";
name = Regular;
paths = (
{
closed = 1;
nodes = (
"112 128 LINE",
"112 76 LINE",
"32 76 LINE",
"32 128 LINE",
"8 128 LINE",
"8 52 LINE",
"112 52 LINE",
"112 24 LINE",
"8 24 LINE",
"8 0 LINE",
"136 0 LINE",
"136 128 LINE"
);
}
);
width = 144;
}
);
unicode = 0059;
},
{
glyphname = zero;
lastChange = "2013-06-29 18:53:43 +0200";
layers = (
{
components = (
{
name = O;
transform = "{1, 0, 0, 1, 0, 0}";
}
);
layerId = "940E2F63-624A-4C3D-A909-721782B4CF41";
name = Regular;
paths = (
{
closed = 1;
nodes = (
"60 52 LINE",
"84 52 LINE",
"84 76 LINE",
"60 76 LINE"
);
}
);
width = 144;
}
);
unicode = 0030;
},
{
glyphname = one;
lastChange = "2013-06-29 18:53:55 +0200";
layers = (
{
layerId = "940E2F63-624A-4C3D-A909-721782B4CF41";
name = Regular;
paths = (
{
closed = 1;
nodes = (
"84 24 LINE",
"84 128 LINE",
"8 128 LINE",
"8 104 LINE",
"60 104 LINE",
"60 24 LINE",
"8 24 LINE",
"8 0 LINE",
"136 0 LINE",
"136 24 LINE"
);
}
);
width = 144;
}
);
unicode = 0031;
},
{
glyphname = four;
lastChange = "2013-06-29 18:54:07 +0200";
layers = (
{
layerId = "940E2F63-624A-4C3D-A909-721782B4CF41";
name = Regular;
paths = (
{
closed = 1;
nodes = (
"112 128 LINE",
"112 76 LINE",
"32 76 LINE",
"32 128 LINE",
"8 128 LINE",
"8 52 LINE",
"112 52 LINE",
"112 0 LINE",
"136 0 LINE",
"136 128 LINE"
);
}
);
width = 144;
}
);
unicode = 0034;
},
{
glyphname = seven;
lastChange = "2013-06-29 18:54:25 +0200";
layers = (
{
layerId = "940E2F63-624A-4C3D-A909-721782B4CF41";
name = Regular;
paths = (
{
closed = 1;
nodes = (
"8 128 LINE",
"8 104 LINE",
"112 104 LINE",
"112 76 LINE",
"60 76 LINE",
"60 0 LINE",
"84 0 LINE",
"84 52 LINE",
"136 52 LINE",
"136 128 LINE"
);
}
);
width = 144;
}
);
unicode = 0037;
},
{
glyphname = eight;
lastChange = "2013-06-29 18:54:39 +0200";
layers = (
{
layerId = "940E2F63-624A-4C3D-A909-721782B4CF41";
name = Regular;
paths = (
{
closed = 1;
nodes = (
"8 128 LINE",
"8 0 LINE",
"136 0 LINE",
"136 128 LINE"
);
},
{
closed = 1;
nodes = (
"112 76 LINE",
"32 76 LINE",
"32 104 LINE",
"112 104 LINE"
);
},
{
closed = 1;
nodes = (
"112 24 LINE",
"32 24 LINE",
"32 52 LINE",
"112 52 LINE"
);
}
);
width = 144;
}
);
unicode = 0038;
},
{
glyphname = asterisk;
lastChange = "2013-06-29 18:55:20 +0200";
layers = (
{
components = (
{
name = plus;
transform = "{1, 0, 0, 1, 0, 0}";
}
);
layerId = "940E2F63-624A-4C3D-A909-721782B4CF41";
name = Regular;
paths = (
{
closed = 1;
nodes = (
"32 128 LINE",
"8 128 LINE",
"8 104 LINE",
"32 104 LINE"
);
},
{
closed = 1;
nodes = (
"112 128 LINE",
"112 104 LINE",
"136 104 LINE",
"136 128 LINE"
);
},
{
closed = 1;
nodes = (
"8 0 LINE",
"32 0 LINE",
"32 24 LINE",
"8 24 LINE"
);
},
{
closed = 1;
nodes = (
"112 0 LINE",
"136 0 LINE",
"136 24 LINE",
"112 24 LINE"
);
}
);
width = 144;
}
);
unicode = 002A;
},
{
glyphname = backslash;
lastChange = "2013-06-29 18:55:30 +0200";
layers = (
{
layerId = "940E2F63-624A-4C3D-A909-721782B4CF41";
name = Regular;
paths = (
{
closed = 1;
nodes = (
"8 0 LINE",
"32 0 LINE",
"32 128 LINE",
"8 128 LINE"
);
},
{
closed = 1;
nodes = (
"60 0 LINE",
"84 0 LINE",
"84 128 LINE",
"60 128 LINE"
);
},
{
closed = 1;
nodes = (
"112 0 LINE",
"136 0 LINE",
"136 128 LINE",
"112 128 LINE"
);
}
);
width = 144;
}
);
unicode = 005C;
},
{
glyphname = bullet;
lastChange = "2013-06-29 18:55:44 +0200";
layers = (
{
layerId = "940E2F63-624A-4C3D-A909-721782B4CF41";
name = Regular;
paths = (
{
closed = 1;
nodes = (
"8 128 LINE",
"8 104 LINE",
"136 104 LINE",
"136 128 LINE"
);
},
{
closed = 1;
nodes = (
"8 76 LINE",
"8 52 LINE",
"136 52 LINE",
"136 76 LINE"
);
},
{
closed = 1;
nodes = (
"8 24 LINE",
"8 0 LINE",
"136 0 LINE",
"136 24 LINE"
);
}
);
width = 144;
}
);
unicode = 2022;
},
{
glyphname = comma;
lastChange = "2013-05-10 13:48:47 +0200";
layers = (
{
layerId = "940E2F63-624A-4C3D-A909-721782B4CF41";
name = Regular;
paths = (
{
closed = 1;
nodes = (
"8 0 LINE",
"136 0 LINE",
"136 128 LINE",
"8 128 LINE"
);
}
);
width = 144;
}
);
unicode = 002C;
},
{
glyphname = ellipsis;
lastChange = "2013-06-29 18:56:02 +0200";
layers = (
{
layerId = "940E2F63-624A-4C3D-A909-721782B4CF41";
name = Regular;
paths = (
{
closed = 1;
nodes = (
"32 24 LINE",
"8 24 LINE",
"8 0 LINE",
"32 0 LINE"
);
},
{
closed = 1;
nodes = (
"136 24 LINE",
"112 24 LINE",
"112 0 LINE",
"136 0 LINE"
);
},
{
closed = 1;
nodes = (
"84 24 LINE",
"60 24 LINE",
"60 0 LINE",
"84 0 LINE"
);
},
{
closed = 1;
nodes = (
"8 128 LINE",
"8 104 LINE",
"136 104 LINE",
"136 128 LINE"
);
},
{
closed = 1;
nodes = (
"8 76 LINE",
"8 52 LINE",
"136 52 LINE",
"136 76 LINE"
);
}
);
width = 144;
}
);
unicode = 2026;
},
{
glyphname = exclam;
lastChange = "2013-06-29 18:56:20 +0200";
layers = (
{
layerId = "940E2F63-624A-4C3D-A909-721782B4CF41";
name = Regular;
paths = (
{
closed = 1;
nodes = (
"136 128 LINE",
"112 128 LINE",
"112 52 LINE",
"136 52 LINE"
);
},
{
closed = 1;
nodes = (
"84 128 LINE",
"60 128 LINE",
"60 52 LINE",
"84 52 LINE"
);
},
{
closed = 1;
nodes = (
"32 128 LINE",
"8 128 LINE",
"8 52 LINE",
"32 52 LINE"
);
},
{
closed = 1;
nodes = (
"32 24 LINE",
"8 24 LINE",
"8 0 LINE",
"32 0 LINE"
);
},
{
closed = 1;
nodes = (
"136 24 LINE",
"112 24 LINE",
"112 0 LINE",
"136 0 LINE"
);
},
{
closed = 1;
nodes = (
"84 24 LINE",
"60 24 LINE",
"60 0 LINE",
"84 0 LINE"
);
}
);
width = 144;
}
);
unicode = 0021;
},
{
glyphname = numbersign;
lastChange = "2013-06-29 18:56:36 +0200";
layers = (
{
layerId = "940E2F63-624A-4C3D-A909-721782B4CF41";
name = Regular;
paths = (
{
closed = 1;
nodes = (
"8 128 LINE",
"8 0 LINE",
"136 0 LINE",
"136 128 LINE"
);
},
{
closed = 1;
nodes = (
"32 104 LINE",
"60 104 LINE",
"60 76 LINE",
"32 76 LINE"
);
},
{
closed = 1;
nodes = (
"112 76 LINE",
"84 76 LINE",
"84 104 LINE",
"112 104 LINE"
);
},
{
closed = 1;
nodes = (
"32 24 LINE",
"32 52 LINE",
"60 52 LINE",
"60 24 LINE"
);
},
{
closed = 1;
nodes = (
"112 24 LINE",
"84 24 LINE",
"84 52 LINE",
"112 52 LINE"
);
}
);
width = 144;
}
);
unicode = 0023;
},
{
glyphname = question;
lastChange = "2013-06-29 18:56:51 +0200";
layers = (
{
layerId = "940E2F63-624A-4C3D-A909-721782B4CF41";
name = Regular;
paths = (
{
closed = 1;
nodes = (
"8 128 LINE",
"8 104 LINE",
"112 104 LINE",
"112 76 LINE",
"60 76 LINE",
"60 52 LINE",
"136 52 LINE",
"136 128 LINE"
);
},
{
closed = 1;
nodes = (
"84 24 LINE",
"60 24 LINE",
"60 0 LINE",
"84 0 LINE"
);
}
);
width = 144;
}
);
unicode = 003F;
},
{
glyphname = braceleft;
lastChange = "2013-06-29 18:57:10 +0200";
layers = (
{
layerId = "940E2F63-624A-4C3D-A909-721782B4CF41";
name = Regular;
paths = (
{
closed = 1;
nodes = (
"136 104 LINE",
"136 128 LINE",
"60 128 LINE",
"60 76 LINE",
"8 76 LINE",
"8 52 LINE",
"60 52 LINE",
"60 0 LINE",
"136 0 LINE",
"136 24 LINE",
"84 24 LINE",
"84 104 LINE"
);
}
);
width = 144;
}
);
unicode = 007B;
},
{
glyphname = divide;
lastChange = "2013-06-29 18:57:32 +0200";
layers = (
{
components = (
{
name = minus;
transform = "{1, 0, 0, 1, 0, 0}";
}
);
layerId = "940E2F63-624A-4C3D-A909-721782B4CF41";
name = Regular;
paths = (
{
closed = 1;
nodes = (
"60 128 LINE",
"60 104 LINE",
"84 104 LINE",
"84 128 LINE"
);
},
{
closed = 1;
nodes = (
"60 24 LINE",
"60 0 LINE",
"84 0 LINE",
"84 24 LINE"
);
}
);
width = 144;
}
);
unicode = 00F7;
},
{
glyphname = minus;
lastChange = "2013-06-29 18:57:39 +0200";
layers = (
{
layerId = "940E2F63-624A-4C3D-A909-721782B4CF41";
name = Regular;
paths = (
{
closed = 1;
nodes = (
"8 76 LINE",
"8 52 LINE",
"136 52 LINE",
"136 76 LINE"
);
}
);
width = 144;
}
);
unicode = 2212;
},
{
glyphname = plus;
lastChange = "2013-06-29 18:57:48 +0200";
layers = (
{
layerId = "940E2F63-624A-4C3D-A909-721782B4CF41";
name = Regular;
paths = (
{
closed = 1;
nodes = (
"136 76 LINE",
"84 76 LINE",
"84 128 LINE",
"60 128 LINE",
"60 76 LINE",
"8 76 LINE",
"8 52 LINE",
"60 52 LINE",
"60 0 LINE",
"84 0 LINE",
"84 52 LINE",
"136 52 LINE"
);
}
);
width = 144;
}
);
unicode = 002B;
},
{
glyphname = ampersand;
lastChange = "2013-06-29 19:00:34 +0200";
layers = (
{
layerId = "940E2F63-624A-4C3D-A909-721782B4CF41";
name = Regular;
paths = (
{
closed = 1;
nodes = (
"60 128 LINE",
"60 76 LINE",
"8 76 LINE",
"8 0 LINE",
"136 0 LINE",
"136 24 LINE",
"32 24 LINE",
"32 52 LINE",
"136 52 LINE",
"136 128 LINE"
);
},
{
closed = 1;
nodes = (
"112 76 LINE",
"84 76 LINE",
"84 104 LINE",
"112 104 LINE"
);
}
);
width = 144;
}
);
unicode = 0026;
},
{
glyphname = degree;
lastChange = "2013-06-29 19:00:55 +0200";
layers = (
{
layerId = "940E2F63-624A-4C3D-A909-721782B4CF41";
name = Regular;
paths = (
{
closed = 1;
nodes = (
"84 128 LINE",
"8 128 LINE",
"8 52 LINE",
"84 52 LINE"
);
},
{
closed = 1;
nodes = (
"60 104 LINE",
"60 76 LINE",
"32 76 LINE",
"32 104 LINE"
);
},
{
closed = 1;
nodes = (
"112 24 LINE",
"60 24 LINE",
"60 0 LINE",
"136 0 LINE",
"136 76 LINE",
"112 76 LINE"
);
}
